<?xml version="1.0" standalone="no"?>
<!DOCTYPE svg PUBLIC "-//W3C//DTD SVG 1.1//EN" "http://www.w3.org/Graphics/SVG/1.1/DTD/svg11.dtd" >
<svg xmlns="http://www.w3.org/2000/svg">
<metadata></metadata>
<defs>
<font id="akzidenz_grotesk_be_superRg" horiz-adv-x="1323" >
<font-face units-per-em="2048" ascent="1638" descent="-410" />
<missing-glyph horiz-adv-x="641" />
<glyph horiz-adv-x="0" />
<glyph unicode="&#xd;" horiz-adv-x="0" />
<glyph unicode=" "  horiz-adv-x="641" />
<glyph unicode="&#x09;" horiz-adv-x="641" />
<glyph unicode="&#xa0;" horiz-adv-x="641" />
<glyph unicode="!" horiz-adv-x="598" d="M154 0v385h372v-385h-372zM154 1059v387h372v-391l-80 -527h-206z" />
<glyph unicode="&#x22;" horiz-adv-x="811" d="M47 1397q0 67 47 102t107 35q58 0 97.5 -34.5t39.5 -92.5q0 -12 -0.5 -19t-1.5 -16l-109 -536h-65l-111 512q-4 32 -4 49zM473 1399q0 40 20.5 70.5t56 47.5t77.5 17q36 0 68 -15.5t50.5 -44.5t18.5 -67q0 -25 -2 -35l-109 -536h-63l-113 512q-4 32 -4 51z" />
<glyph unicode="#" horiz-adv-x="1366" d="M86 381v252h229l27 196h-205v254h240l51 361h254l-51 -361h205l49 361h256l-49 -361h186v-254h-223l-25 -196h201v-252h-238l-53 -381h-258l55 381h-202l-54 -381h-254l52 381h-193zM569 633h203l29 196h-205z" />
<glyph unicode="$" horiz-adv-x="1366" d="M49 147l217 259q70 -46 113.5 -68t93 -36t127.5 -23v270q-139 32 -206.5 51.5t-122.5 47t-97 69.5q-102 101 -102 260q0 172 116 293q86 91 187.5 121t224.5 39v133h195v-140q157 -20 244.5 -52t201.5 -105l-211 -250q-75 54 -117 72.5t-118 25.5v-229q81 -9 149 -26.5 t141 -55.5q55 -29 105 -67.5t92.5 -113.5t42.5 -180q0 -81 -32 -164t-89 -141q-57 -60 -125.5 -92.5t-128.5 -45t-155 -26.5v-204h-195v204q-156 19 -240.5 37.5t-153 50t-157.5 86.5zM461 1014q0 -45 35 -63t104 -31v200q-34 -4 -53 -10q-41 -12 -63.5 -40t-22.5 -56z M795 283q32 8 49 14q45 18 67.5 50t22.5 65q0 50 -35 70.5t-104 35.5v-235z" />
<glyph unicode="%" horiz-adv-x="2048" d="M41 942q0 109 32 205t97 164t133.5 89t151.5 21q97 0 157 -22q65 -26 119.5 -82.5t87.5 -146.5t33 -207q0 -96 -24.5 -183.5t-74.5 -154.5t-130 -106.5t-183 -39.5q-129 0 -218.5 59t-135 164t-45.5 240zM326 950q0 -129 20.5 -198.5t97.5 -69.5q47 0 74 31t38 92t11 153 q0 134 -23.5 201t-90.5 68q-82 0 -104.5 -81t-22.5 -196zM625 0l618 1446h189l-619 -1446h-188zM1190 444q0 109 32 204t97 163t135 89.5t150 21.5q98 0 157 -23q65 -25 119.5 -81t87.5 -146t33 -207q0 -129 -44 -240.5t-137.5 -178t-230.5 -66.5q-128 0 -218.5 59 t-135.5 165t-45 240zM1475 451q0 -130 20.5 -199.5t97.5 -69.5q69 0 96 66.5t27 212.5q0 133 -23.5 199t-90.5 67q-82 0 -104.5 -80.5t-22.5 -195.5z" />
<glyph unicode="&#x26;" horiz-adv-x="1409" d="M35 436q0 108 32.5 177.5t98.5 134.5q47 47 90.5 74.5t114.5 58.5q-48 69 -72.5 123.5t-24.5 142.5q0 58 26.5 128t118 127.5t263.5 57.5q78 0 168.5 -19t159.5 -91q77 -81 77 -209q0 -149 -112 -258q-60 -60 -172 -111q95 -117 174 -205q23 57 32 88t19 93l309 -115 q-46 -141 -72.5 -200.5t-68.5 -125.5q19 -8 41 -16.5t40.5 -12.5t41.5 -4q35 0 63 7v-279q-110 -12 -165 -12q-78 0 -125 11t-77 30t-57 45q-76 -46 -163 -76.5t-222 -30.5q-126 0 -229 37t-188 125q-47 47 -72.5 93t-37 97.5t-11.5 114.5zM420 442q0 -68 47.5 -125 t136.5 -57q70 0 158 45q-111 133 -236 307q-50 -37 -78 -74t-28 -96zM586 1135q0 -19 5 -34t15.5 -35t27.5 -44t19 -27q63 38 94 65t31 70q0 24 -19 54t-81 30q-92 0 -92 -79z" />
<glyph unicode="'" horiz-adv-x="426" d="M68 1399q0 64 46 99.5t109 35.5q35 0 60.5 -12t38 -25t20.5 -22q14 -31 14 -103l-108 -536h-66l-110 512q-4 32 -4 51z" />
<glyph unicode="(" horiz-adv-x="725" d="M47 586q0 176 47.5 323t126 262.5t158.5 195t180 165.5l141 -133q-81 -97 -126.5 -159t-88.5 -151.5t-70.5 -211.5t-27.5 -271q0 -253 84 -454q35 -84 78 -149.5t80.5 -104t83.5 -78.5l-127 -158q-96 73 -148.5 115.5t-113 106t-112.5 141t-89 168.5q-76 181 -76 393z " />
<glyph unicode=")" horiz-adv-x="725" d="M12 1374l127 158q174 -129 283 -241.5t182 -289.5q38 -90 56 -191t18 -202q0 -181 -48.5 -327.5t-124 -258t-153 -189t-186.5 -171.5l-141 133q152 181 232.5 346.5t80.5 446.5q0 253 -84 454q-52 126 -112 199.5t-130 132.5z" />
<glyph unicode="*" horiz-adv-x="725" d="M31 1147l57 174l176 -61v194h182v-184l181 69l65 -172l-196 -75l133 -158l-146 -111l-127 158l-108 -156l-148 107l109 155z" />
<glyph unicode="+" horiz-adv-x="1366" d="M86 467v260h469v465h260v-465h465v-260h-465v-467h-260v467h-469z" />
<glyph unicode="," horiz-adv-x="512" d="M70 0v385h372v-295q-2 -88 -7.5 -135t-27.5 -101.5t-69 -103.5q-55 -55 -114.5 -75.5t-153.5 -36.5v180q82 26 103.5 69.5t23.5 112.5h-127z" />
<glyph unicode="-" horiz-adv-x="682" d="M78 473v350h524v-350h-524z" />
<glyph unicode="." horiz-adv-x="512" d="M70 0v385h372v-385h-372z" />
<glyph unicode="/" horiz-adv-x="1024" d="M2 0l621 1446h395l-617 -1446h-399z" />
<glyph unicode="0" d="M41 678q0 211 69 382t213.5 272.5t358.5 101.5q168 -1 287 -69.5t185 -173.5t94 -226.5t28 -245.5q0 -190 -64 -363t-206.5 -283t-362.5 -110q-177 0 -313.5 85t-212.5 247.5t-76 382.5zM459 655q0 -57 4 -120t14 -107q44 -176 180 -176q81 0 126 62t61 155t16 213 q0 199 -24 305q-17 73 -59.5 120.5t-110.5 47.5q-40 0 -78.5 -21t-67.5 -67q-61 -104 -61 -412z" />
<glyph unicode="1" d="M225 899v318h51q96 0 160 28q70 30 100 70.5t48 91.5h364v-1407h-422v934q-53 -22 -103.5 -28t-197.5 -7z" />
<glyph unicode="2" d="M55 0v266q110 72 177.5 118t144.5 101.5t162 120.5q110 88 172.5 154t83 112t20.5 95q0 60 -34 113t-134 53q-115 0 -147.5 -68t-32.5 -141q0 -49 14 -103l-415 49q4 89 12 151t36.5 131t80.5 122q67 70 160.5 103.5t172.5 41.5t154 8t148 -8.5t152 -39t140 -93.5 q119 -116 119 -311q0 -70 -18.5 -135.5t-55.5 -122.5t-97 -114t-136 -109q-60 -42 -136.5 -86t-148.5 -86l142 4l75 2h357v-328h-1168z" />
<glyph unicode="3" d="M6 422l391 74q6 -57 19.5 -100.5t46.5 -76.5q30 -28 75.5 -43.5t98.5 -15.5q106 0 162 53q45 45 45 123q0 150 -236 150q-52 0 -104 -11v279q46 -6 92 -6q231 0 231 151q0 58 -40.5 104t-147.5 46q-76 0 -118.5 -33.5t-56.5 -73t-24 -102.5l-387 23q22 117 45.5 184.5 t85.5 130.5q67 68 161.5 103t171.5 43t147 8q114 0 243 -27.5t223 -124.5q97 -98 97 -244q0 -140 -64.5 -203.5t-161.5 -103.5q60 -16 118.5 -44.5t105.5 -94.5t47 -174q0 -79 -30.5 -157t-84.5 -134q-67 -69 -166.5 -103.5t-185.5 -42.5t-172 -8q-128 0 -261 29t-233 131 q-31 33 -53 67.5t-37.5 75t-24.5 76t-18 72.5z" />
<glyph unicode="4" d="M39 293v278l639 838h418v-838h180v-278h-180v-293h-402v293h-655zM377 571h317l4 381q4 49 7 76q0 -1 -29.5 -45t-43.5 -64.5t-18 -25.5z" />
<glyph unicode="5" d="M33 426l418 43q0 -70 10 -102q18 -59 65 -89t111 -30q70 0 117.5 30.5t69.5 81t22 107.5q0 100 -55 159.5t-160 59.5q-75 0 -110.5 -24.5t-61.5 -65.5l-350 43l77 762h1045l-31 -293h-715l-20 -199q21 14 43 23q99 39 229 39q113 0 212.5 -34.5t172 -97t112.5 -149.5 t40 -192q0 -101 -38.5 -198.5t-109.5 -166.5q-163 -168 -491 -168q-115 0 -241.5 29.5t-227.5 132.5q-41 42 -66.5 90t-39.5 95.5t-27 113.5z" />
<glyph unicode="6" d="M37 664q0 127 24 243t86 223q76 128 178 195.5t201 88t193 20.5q191 0 302.5 -62.5t156 -137t71.5 -163.5l-399 -61q-8 67 -43 104q-48 45 -121 45q-44 0 -89 -20t-79 -54q-56 -57 -72 -126.5t-20 -174.5q15 22 33 39q54 52 148.5 80.5t183.5 28.5q104 0 195.5 -35 t157.5 -96.5t103 -148t37 -191.5q0 -112 -46 -205.5t-129 -158.5t-193.5 -98.5t-233.5 -33.5q-133 0 -256.5 43t-206.5 121q-182 172 -182 535zM463 451q0 -92 58 -152.5t151 -60.5q86 0 147.5 56t61.5 159q0 65 -26.5 113.5t-73 74t-103.5 25.5q-98 0 -156.5 -61.5 t-58.5 -153.5z" />
<glyph unicode="7" d="M88 1092v319h1129v-268q-84 -90 -129 -144t-100 -139t-114 -209q-85 -184 -119.5 -316t-68.5 -335h-440q26 110 47.5 184.5t55 163.5t87.5 205q56 113 95.5 184t80.5 134.5t93 136t61 84.5h-678z" />
<glyph unicode="8" d="M37 397q0 92 37 164q41 82 93 119t114 61q-54 33 -86 64q-38 38 -62 97.5t-24 125.5q0 86 38 160q76 153 224.5 196t292.5 43q198 0 317 -49q149 -60 195.5 -159.5t46.5 -184.5q0 -118 -45 -179.5t-117 -111.5q42 -20 71.5 -37t53.5 -44q45 -43 70.5 -109.5t25.5 -142.5 q0 -162 -113 -275q-73 -73 -168.5 -109t-176 -45.5t-165.5 -9.5q-173 0 -280 33q-98 27 -176.5 82.5t-122 135t-43.5 175.5zM449 412q0 -52 40 -114t166 -62q111 0 164 54.5t53 123.5q0 38 -19.5 79.5t-67.5 71t-126 29.5q-112 -1 -161 -57t-49 -125zM479 1016 q0 -56 47 -102t140 -46q92 0 135 45.5t43 100.5q0 49 -36 95.5t-142 47.5q-101 0 -144 -41q-43 -40 -43 -100z" />
<glyph unicode="9" d="M35 938q0 152 80.5 264.5t217.5 172t304 59.5q137 0 260 -43.5t203 -120.5q182 -174 182 -535q0 -133 -24 -246t-87 -221q-77 -130 -178.5 -196.5t-200 -86.5t-192.5 -20q-147 0 -247.5 39t-157 97t-82 113t-43.5 116l399 59q4 -31 12 -55t31 -47q47 -47 121 -47 q43 0 88.5 19.5t79.5 53.5q55 57 71.5 126t20.5 175q-10 -14 -33 -39q-54 -51 -147.5 -79.5t-184.5 -28.5q-104 0 -194.5 34.5t-157 96.5t-104 149.5t-37.5 190.5zM438 946q0 -98 56.5 -155.5t146.5 -57.5q65 0 114 28.5t75 78t26 108.5q0 60 -26 109t-74 76.5t-109 27.5 q-86 0 -147.5 -55.5t-61.5 -159.5z" />
<glyph unicode=":" horiz-adv-x="598" d="M152 0v385h372v-385h-372zM152 676v385h372v-385h-372z" />
<glyph unicode=";" horiz-adv-x="598" d="M152 0v385h372v-295q-2 -88 -7.5 -135t-27.5 -101.5t-69 -103.5q-55 -55 -114.5 -75.5t-153.5 -36.5v180q81 26 103 70.5t24 111.5h-127zM152 676v385h372v-385h-372z" />
<glyph unicode="&#x3c;" horiz-adv-x="1366" d="M0 592v254l1366 606v-285l-1001 -448l1001 -443v-282z" />
<glyph unicode="=" horiz-adv-x="1366" d="M0 252v260h1366v-260h-1366zM0 682v258h1366v-258h-1366z" />
<glyph unicode="&#x3e;" horiz-adv-x="1366" d="M0 -6v282l1001 443l-1001 448v285l1366 -606v-254z" />
<glyph unicode="?" horiz-adv-x="1237" d="M92 1083q28 85 53 133.5t86 104.5q67 62 142.5 95t149 43.5t147.5 10.5q299 0 444 -145q103 -105 103 -248q0 -182 -164 -295l-75 -50t-93 -64q-69 -50 -88.5 -77t-26.5 -63h-354q6 66 16.5 104t48.5 87.5t111 105.5q11 9 35.5 27t44.5 33q129 88 129 178q0 46 -38 88.5 t-116 42.5q-115 0 -153.5 -67t-51.5 -160zM403 0v385h375v-385h-375z" />
<glyph unicode="@" horiz-adv-x="1835" d="M141 487q0 190 72 368.5t200 314.5t300 212t368 76q157 0 275 -50.5t192.5 -135.5t110 -189.5t35.5 -212.5q0 -144 -40 -278t-109 -236.5t-158 -161.5t-181 -59q-51 0 -91 19t-64 51q-16 21 -29 71q-51 -57 -108.5 -98t-147.5 -41q-104 0 -180 66q-105 88 -105 280 q0 141 57.5 278.5t160.5 223.5t229 86q85 0 131.5 -35.5t81.5 -87.5l18 80h187l-70 -323q-38 -196 -46.5 -248.5t-8.5 -81.5q0 -66 39 -66q45 0 108.5 77.5t108.5 202.5t45 267q0 158 -68 256t-171.5 141t-219.5 43q-144 0 -281 -64t-243.5 -175.5t-168 -259.5t-61.5 -308 q0 -165 61 -281t157 -181t201.5 -92t199.5 -27q121 0 226.5 30.5t190 78.5t136 90t114.5 100l97 -125q-82 -78 -178 -149t-245 -129t-325 -58q-181 0 -365.5 70t-311 237t-126.5 434zM692 494q0 -110 46.5 -142.5t82.5 -32.5q48 0 93.5 34t81.5 92.5t56.5 129t20.5 142.5 q0 86 -42.5 129t-96.5 43q-66 0 -122.5 -60.5t-88 -152t-31.5 -182.5z" />
<glyph unicode="A" horiz-adv-x="1622" d="M-2 0l553 1446h520l541 -1446h-492l-63 201h-504l-64 -201h-491zM651 524h312l-154 510z" />
<glyph unicode="B" horiz-adv-x="1493" d="M90 0v1446h856q114 -5 205.5 -26t161.5 -91q47 -43 72.5 -110.5t25.5 -139.5q0 -77 -28.5 -143t-73.5 -111q-37 -37 -123 -77q56 -15 94 -33t76 -56q96 -92 96 -245q0 -87 -27 -165t-79 -130q-49 -51 -112.5 -76.5t-126 -33t-132.5 -9.5h-885zM545 311h286q42 2 68.5 9 t50.5 34q37 37 37 95q0 135 -166 143h-276v-281zM547 895h252q149 0 149 121q0 77 -41.5 99.5t-97.5 25.5h-262v-246z" />
<glyph unicode="C" horiz-adv-x="1536" d="M55 715q0 149 49 289.5t145.5 252.5t238.5 177t317 65q169 0 319 -59.5t260 -173.5q69 -71 121 -170l-383 -191q-25 60 -57.5 111t-93.5 90t-148 39q-65 0 -116 -24.5t-78 -53.5q-109 -104 -109 -326q0 -113 30.5 -207.5t99.5 -152t175 -57.5q95 0 158 44.5t92 96.5 t43 96l389 -188q-33 -65 -64.5 -112.5t-76.5 -92.5q-108 -106 -254.5 -159.5t-306.5 -53.5q-245 0 -414.5 108.5t-252.5 283.5t-83 368z" />
<glyph unicode="D" horiz-adv-x="1536" d="M90 0v1446h492q200 -2 313.5 -11.5t211 -44t177.5 -110.5q54 -48 93 -111.5t63 -135.5t34.5 -147t10.5 -157q0 -119 -23.5 -227.5t-71.5 -199t-126 -159.5t-185 -104q-79 -26 -163.5 -32.5t-223.5 -6.5h-602zM549 332h174q65 4 108 15.5t84 51.5q51 48 80 135.5t29 188.5 q0 118 -37 213q-40 108 -104.5 138t-161.5 34h-172v-776z" />
<glyph unicode="E" d="M88 0v1446h1145v-318h-686v-215h641v-313h-641v-287h747v-313h-1206z" />
<glyph unicode="F" horiz-adv-x="1280" d="M90 0v1446h1145v-320h-688v-260h643v-311h-643v-555h-457z" />
<glyph unicode="G" horiz-adv-x="1622" d="M55 715q0 157 50.5 300t149 253t244 173.5t328.5 63.5q166 0 323.5 -57t260.5 -160q59 -57 87 -108.5t52 -120.5l-409 -115q-9 40 -24 76.5t-42 62.5q-20 20 -53.5 38.5t-75 28t-84.5 9.5q-76 0 -133 -23t-96 -61q-113 -104 -113 -342q0 -54 7 -109.5t30 -113t72 -107.5 q59 -61 122.5 -78.5t122.5 -17.5q142 0 218 78q24 27 34 52t21 73h-268v291h663v-799h-342v100q-77 -58 -177 -98.5t-257 -40.5q-148 0 -272 51q-95 39 -192 119.5t-172 228t-75 353.5z" />
<glyph unicode="H" horiz-adv-x="1536" d="M90 0v1446h457v-526h436v526h461v-1446h-461v557h-436v-557h-457z" />
<glyph unicode="I" horiz-adv-x="641" d="M90 0v1446h459v-1446h-459z" />
<glyph unicode="J" horiz-adv-x="854" d="M0 0v356q49 -12 119 -12q77 0 116.5 20t52.5 54.5t15 91.5v938h457v-1047q-2 -102 -18 -173.5t-72 -129.5q-64 -62 -152 -79t-213 -19h-305z" />
<glyph unicode="K" horiz-adv-x="1579" d="M90 0v1446h457v-547l454 547h560l-504 -549l538 -897h-514l-319 578l-213 -236v-342h-459z" />
<glyph unicode="L" horiz-adv-x="1110" d="M90 0v1448h457v-1083h559v-365h-1016z" />
<glyph unicode="M" horiz-adv-x="1962" d="M88 0v1446h653l179 -668q35 -154 59 -307q28 187 68 354l163 621h656v-1446h-436v836q2 101 12 256q-32 -142 -58 -234l-239 -858h-340l-223 813q-43 163 -68 270q8 -120 8 -194v-889h-434z" />
<glyph unicode="N" horiz-adv-x="1579" d="M90 0v1446h485l326 -547q103 -191 176 -354q-7 78 -11.5 163t-6.5 171v567h428v-1446h-492l-293 500q-65 111 -96.5 170.5t-103.5 210.5q12 -155 14 -295v-586h-426z" />
<glyph unicode="O" horiz-adv-x="1663" d="M53 721q0 158 48 297.5t146.5 248t247 170.5t336.5 62q204 0 354.5 -67.5t242.5 -178t135 -245t43 -271.5q0 -195 -81.5 -375t-258 -294.5t-443.5 -114.5q-209 0 -359.5 69t-241.5 184.5t-130 247.5t-39 267zM512 723q0 -127 34.5 -217.5t107 -138.5t177.5 -48 q142 0 228 109.5t86 308.5q0 116 -27 191q-44 129 -130 168t-157 39q-86 0 -159 -43t-116.5 -135t-43.5 -234z" />
<glyph unicode="P" horiz-adv-x="1450" d="M90 0v1448h828q60 -1 120 -7t108.5 -19t95 -39t87.5 -70q71 -74 96 -160t25 -178q0 -226 -137 -369q-56 -58 -120 -87t-132 -37.5t-160 -10.5h-352v-471h-459zM549 774h262q60 5 76 10q52 18 81 64t29 113q0 76 -32.5 116t-73 52t-84.5 14h-258v-369z" />
<glyph unicode="Q" horiz-adv-x="1663" d="M55 725q0 168 54.5 315t166.5 256q83 81 177.5 126.5t190.5 62t198 16.5q92 0 180.5 -14.5t183.5 -58.5t176 -125q70 -70 122 -162t77 -195t25 -205q0 -100 -25 -213q-23 -97 -51 -153.5t-76 -126.5q77 -53 122.5 -73t106.5 -28l-139 -317q-77 15 -128 31.5t-109 55 t-121 108.5q-80 -32 -160 -52t-209 -20q-261 0 -433 109.5t-250.5 286t-78.5 376.5zM518 717q0 -187 78 -292.5t229 -105.5q139 0 227.5 105.5t88.5 314.5q0 210 -90 303t-222 93q-125 0 -206 -88q-105 -113 -105 -330z" />
<glyph unicode="R" horiz-adv-x="1450" d="M90 0v1448h721q249 0 356 -45q89 -38 145.5 -107.5t80.5 -150t24 -160.5q0 -69 -20.5 -144.5t-89.5 -146.5q-38 -40 -79 -62t-108 -48l353 -584h-508l-281 510h-135v-510h-459zM549 807h190q92 0 157 30t65 138q0 75 -36 113t-82 47.5t-106 9.5h-188v-338z" />
<glyph unicode="S" horiz-adv-x="1493" d="M14 274l351 226q32 -49 50.5 -70.5t55 -45t94.5 -42.5q99 -33 203 -33q69 0 143 21t74 88q0 63 -80 90q-20 7 -81.5 20t-177 36t-118.5 24q-161 44 -277 133.5t-116 288.5q0 96 41 186q35 79 95.5 135.5t140 92t169 52.5t193.5 17q126 0 236 -23t200 -69 q71 -33 118.5 -73t94.5 -91l-286 -240q-51 64 -111 95q-56 28 -129.5 40.5t-138.5 12.5q-70 0 -117 -22t-47 -72q0 -48 44 -69t155 -42q205 -34 336 -75.5t218 -134.5t87 -261q0 -104 -36.5 -186t-92.5 -140q-183 -186 -553 -186q-190 0 -336 43q-104 30 -182 77t-122 90 t-98 107z" />
<glyph unicode="T" horiz-adv-x="1194" d="M0 1090v358h1190v-358h-367v-1090h-456v1090h-367z" />
<glyph unicode="U" horiz-adv-x="1493" d="M86 586v860h459v-903q0 -57 9 -98t44 -76q51 -54 145 -54q90 0 146 52q35 34 45 74t10 102v903h461v-770q0 -116 -8.5 -201t-45.5 -175.5t-116 -166.5q-51 -48 -125.5 -88t-168 -62t-202.5 -22q-102 0 -199 21.5t-175 61t-129 89.5q-66 63 -98.5 136.5t-41 144 t-10.5 172.5z" />
<glyph unicode="V" horiz-adv-x="1450" d="M0 1446h467l172 -574q19 -65 37 -134t25 -112t22 -139q23 134 31.5 171t44.5 167l182 621h469l-489 -1446h-478z" />
<glyph unicode="W" horiz-adv-x="2134" d="M-4 1446h446l142 -631q9 -39 24.5 -116t24 -138.5t14.5 -124.5q9 55 18.5 113.5t15 87.5t13.5 67.5t25 112.5l149 629h387l158 -629q22 -95 33.5 -152t19 -107t15.5 -120q15 118 23 167t38 200l144 641h444l-361 -1446h-489l-131 524q-10 42 -30 131.5t-28.5 134.5 t-31.5 183q-15 -125 -28.5 -199.5t-43.5 -206.5l-139 -567h-492z" />
<glyph unicode="X" horiz-adv-x="1706" d="M-4 0l559 776l-469 670h537l229 -397l233 397h523l-457 -668l555 -778h-541l-313 520l-320 -520h-536z" />
<glyph unicode="Y" horiz-adv-x="1622" d="M-6 1446h528l283 -481l278 481h531l-584 -838v-608h-457v608z" />
<glyph unicode="Z" horiz-adv-x="1366" d="M4 0v289l741 811h-698v346h1292v-295l-729 -799h727v-352h-1333z" />
<glyph unicode="[" horiz-adv-x="725" d="M84 -250v1698h614v-231h-274v-1235h274v-232h-614z" />
<glyph unicode="\" horiz-adv-x="1024" d="M2 1446h399l617 -1446h-395z" />
<glyph unicode="]" horiz-adv-x="725" d="M25 -18h274v1235h-274v231h614v-1698h-614v232z" />
<glyph unicode="^" horiz-adv-x="1493" d="M233 637l416 809h213l398 -809h-283l-225 473l-238 -473h-281z" />
<glyph unicode="_" horiz-adv-x="1024" d="M-20 -154h1064v-102h-1064v102z" />
<glyph unicode="`" horiz-adv-x="641" d="M25 1483h436l155 -281h-260z" />
<glyph unicode="a" horiz-adv-x="1237" d="M39 317q0 138 90 228q66 68 151.5 93t245.5 46q77 10 126 20.5t100 24.5q-2 60 -30.5 90.5t-113.5 30.5q-71 0 -98.5 -21t-38.5 -77l-395 -11q17 93 53.5 161t136.5 122q140 72 381 72q228 0 340 -64t138 -144t26 -179v-578q0 -49 6 -72t31 -59h-416v82 q-66 -46 -144 -76.5t-206 -30.5q-126 0 -213 46.5t-128.5 124t-41.5 171.5zM430 330q0 -29 26 -55.5t79 -26.5q51 0 110 32.5t84 88.5q21 45 21 125q-70 -26 -125 -41q-95 -24 -109 -29q-86 -35 -86 -94z" />
<glyph unicode="b" horiz-adv-x="1280" d="M84 0v1446h422v-459q35 32 63 52t81 36.5t126 16.5q91 0 173 -32t148 -99t104 -168.5t38 -237.5q0 -168 -57 -300.5t-165 -207t-257 -74.5q-88 0 -158 27q-40 16 -60.5 31.5t-47.5 46.5v-78h-410zM496 535q0 -84 14 -132q22 -73 66 -98.5t81 -25.5q65 0 107 45 q59 61 59 208q0 71 -12 125q-23 86 -69.5 110t-82.5 24q-58 0 -106 -48q-57 -61 -57 -208z" />
<glyph unicode="c" horiz-adv-x="1151" d="M37 539q0 126 40.5 232t110.5 177q97 101 215.5 131.5t223.5 30.5q272 0 436 -166q41 -41 84 -110l-322 -183q-22 78 -63.5 120t-114.5 42q-92 0 -142 -80t-50 -207q0 -243 182 -243q83 0 123.5 53t64.5 125l322 -176q-21 -46 -43.5 -82.5t-59.5 -73.5 q-64 -66 -171.5 -118t-270.5 -52q-128 0 -234 42.5t-179.5 119.5t-112.5 185.5t-39 232.5z" />
<glyph unicode="d" horiz-adv-x="1280" d="M39 555q0 178 65.5 298.5t170.5 179.5t227 59q74 0 126 -16.5t82 -37.5t62 -51v459h422v-1446h-410v78q-27 -31 -47 -46t-61 -32q-70 -27 -160 -27q-148 0 -255.5 74.5t-164.5 207t-57 300.5zM455 532q0 -147 59 -208q42 -45 107 -45q59 0 106 47q36 37 45.5 90.5 t9.5 118.5q0 84 -16 133q-20 66 -64 94.5t-84 28.5q-35 0 -81 -24t-70 -110q-12 -54 -12 -125z" />
<glyph unicode="e" horiz-adv-x="1237" d="M35 535q0 127 43 234t119.5 180.5t185 114t235.5 40.5q114 0 226.5 -36t199.5 -122q56 -55 89 -116t48 -119.5t19 -116t6 -139.5h-741q2 -50 10 -83t41 -67q49 -49 127 -49q69 0 114.5 35t78.5 102l348 -145q-94 -144 -234.5 -217.5t-328.5 -73.5q-141 0 -252 47 t-186 130t-111.5 186t-36.5 215zM469 678h307q-1 12 -2.5 26t-3.5 23q-13 53 -53.5 81t-87.5 28q-81 0 -114 -47.5t-46 -110.5z" />
<glyph unicode="f" horiz-adv-x="768" d="M-2 807v229h158v107q4 79 16.5 129t60.5 98q94 100 314 100q63 0 101 -5.5t120 -20.5v-289q-40 14 -78 14q-74 0 -93 -36t-19 -97h190v-229h-190v-807h-422v807h-158z" />
<glyph unicode="g" horiz-adv-x="1280" d="M37 565q0 90 23 180.5t78 168.5t154 127t245 49q169 0 256 -86q22 -20 36 -43l-2 100h365v-1000q-4 -132 -43 -229.5t-174 -161.5q-77 -36 -177.5 -52.5t-209.5 -16.5q-44 0 -98 3.5t-118.5 12.5t-117.5 27q-95 33 -140.5 89t-58 117.5t-14.5 135.5h383q0 -36 9 -64 t46 -50t111 -22q45 0 89.5 12.5t68.5 35.5q27 28 33.5 62.5t6.5 100.5q0 68 3 101q-21 -28 -25 -33q-76 -76 -252 -76q-156 0 -263 65.5t-160.5 181t-53.5 265.5zM438 553q0 -113 41 -167t125 -54q111 0 142.5 71t31.5 168q0 228 -164 228q-77 0 -117.5 -48t-49.5 -100.5 t-9 -97.5z" />
<glyph unicode="h" d="M84 0v1448h420v-494q31 38 68 69.5t105.5 57t166.5 25.5q92 0 168 -28t127 -79q57 -60 74.5 -132t21.5 -173v-694h-420v606q-3 45 -10.5 72.5t-41 53.5t-99.5 26q-101 0 -129.5 -48.5t-28.5 -111.5v-598h-422z" />
<glyph unicode="i" horiz-adv-x="598" d="M86 0v1061h422v-1061h-422zM86 1165v281h422v-281h-422z" />
<glyph unicode="j" horiz-adv-x="598" d="M-70 -88q59 0 93.5 10t49.5 35t15 68v1038h422v-1047q-2 -144 -13 -203.5t-59 -109.5q-40 -40 -104 -61.5t-130.5 -28t-168.5 -8.5h-105v307zM88 1165v281h422v-281h-422z" />
<glyph unicode="k" d="M82 0v1446h424v-688l287 303h516l-404 -383l422 -678h-481l-232 403l-110 -106v-297h-422z" />
<glyph unicode="l" horiz-adv-x="598" d="M84 0v1446h424v-1446h-424z" />
<glyph unicode="m" horiz-adv-x="2048" d="M86 -2v1061h403v-152q29 47 60.5 82t101.5 65.5t174 30.5q84 0 162 -24q90 -27 134.5 -72.5t72.5 -101.5q34 75 122 136.5t247 61.5q87 0 164.5 -26.5t130.5 -79.5q65 -64 81.5 -134.5t18.5 -174.5v-670h-422v555q0 50 -8 87t-40 66t-99 29q-156 0 -156 -172v-567h-422 v573q0 30 -6 62q-12 55 -52.5 79.5t-88.5 24.5q-72 0 -115 -43q-25 -25 -32 -52.5t-9 -66.5v-577h-422z" />
<glyph unicode="n" d="M84 0v1061h399v-141q49 68 122.5 117.5t225.5 49.5q183 0 287 -98q66 -63 86.5 -145.5t20.5 -173.5v-670h-422v580q0 66 -25.5 112.5t-118.5 46.5q-98 0 -125.5 -51.5t-27.5 -122.5v-565h-422z" />
<glyph unicode="o" d="M41 522q0 129 42.5 237t124 185.5t199.5 119.5t261 42q104 -1 189 -22.5t150 -57t105 -74.5q52 -50 88 -115t57 -144.5t21 -164.5q0 -125 -42 -229t-124.5 -180.5t-201 -118t-265.5 -41.5q-201 0 -338.5 78.5t-201.5 206.5t-64 278zM461 535q0 -110 41 -195.5t155 -85.5 q195 0 195 285q0 97 -36.5 183.5t-160.5 86.5q-73 -1 -117 -42.5t-60.5 -103t-16.5 -128.5z" />
<glyph unicode="p" horiz-adv-x="1280" d="M84 -385v1446h412v-82q38 43 100.5 77t181.5 34q161 0 265 -80t151 -207.5t47 -278.5q0 -119 -29 -219t-86.5 -174t-146 -116t-205.5 -42q-80 0 -134 16.5t-81 35t-59 47.5v-457h-416zM494 526q0 -92 18 -145q39 -111 145 -111q66 0 109 45q59 62 59 203q0 260 -157 264 q-70 0 -113 -43q-41 -38 -51 -91t-10 -122z" />
<glyph unicode="q" horiz-adv-x="1280" d="M39 524q0 151 47 278.5t151 207.5t265 80q119 0 181.5 -34t100.5 -77v82h412v-1446h-416v457q-44 -42 -104 -70.5t-170 -28.5q-153 0 -258.5 71.5t-157 195.5t-51.5 284zM455 518q0 -141 59 -203q43 -45 109 -45q58 0 104 41q37 36 48 93t11 122q0 89 -16 138 q-24 76 -72.5 97t-85.5 21q-157 -4 -157 -264z" />
<glyph unicode="r" horiz-adv-x="854" d="M84 0v1067h405v-98q84 74 154 94t201 20v-356q-58 4 -86 4q-112 0 -168 -39.5t-69.5 -86.5t-16.5 -105v-500h-420z" />
<glyph unicode="s" horiz-adv-x="1110" d="M0 172l236 215q69 -71 159 -108q86 -35 168 -35q42 0 76.5 16t34.5 49q0 35 -30 49.5t-77 20.5q-127 21 -221 49q-82 25 -139 52.5t-105.5 91t-48.5 167.5q0 68 29 132t78 110q129 123 375 123q117 0 239 -29q99 -23 156 -53t110 -72l-227 -207q-73 47 -135 74t-137 27 q-90 0 -90 -56q0 -27 28.5 -39.5t141.5 -39.5q129 -29 189.5 -45.5t94.5 -34.5q80 -43 123 -115t43 -162q0 -107 -58.5 -196.5t-172 -143t-273.5 -53.5q-141 0 -250 34.5t-182.5 81t-134.5 97.5z" />
<glyph unicode="t" horiz-adv-x="768" d="M0 807v229h147l5 334h423l-4 -334h183v-229h-185l-4 -408q0 -46 20.5 -78t94.5 -32q26 0 76 8v-289q-74 -9 -143 -15.5t-124 -6.5q-192 0 -278 88q-47 47 -59.5 101.5t-12.5 117.5l6 514h-145z" />
<glyph unicode="u" d="M82 416v645h422v-578q0 -47 8.5 -82.5t41.5 -62.5t101 -27q98 0 125 52.5t29 136.5v561h424v-1061h-402v156l-12.5 -25t-17 -28t-23.5 -25q-55 -54 -132 -79.5t-165 -25.5q-110 1 -181 32.5t-112 72.5q-68 66 -86 146.5t-20 191.5z" />
<glyph unicode="v" horiz-adv-x="1151" d="M-6 1061h446l84 -393q24 -129 45 -318q19 160 52 336l86 375h442l-354 -1061h-447z" />
<glyph unicode="w" horiz-adv-x="1749" d="M-2 1061h430l82 -399q31 -164 49 -334q16 161 51 350l78 383h363l77 -373q33 -162 58 -360q10 134 35 276l90 457h432l-318 -1061h-419l-95 424q-30 151 -43 315q-5 -96 -9 -135t-23 -133l-99 -471h-420z" />
<glyph unicode="x" horiz-adv-x="1237" d="M-8 0l356 557l-315 504h452l131 -318l140 318h454l-321 -502l352 -559h-450l-175 344l-172 -344h-452z" />
<glyph unicode="y" horiz-adv-x="1194" d="M0 1061h440l105 -457q3 -13 13.5 -76t12.5 -72.5t8.5 -53t14.5 -109.5q15 142 51 323l107 445h438l-387 -1122q-27 -76 -53.5 -132t-71.5 -100q-44 -43 -85.5 -61.5t-85 -23.5t-124.5 -5q-65 0 -120 4t-103 10v301q41 -2 70.5 -4t48.5 -2q90 0 90 51q0 10 -3 21.5t-9 28 t-11 30.5t-10 29z" />
<glyph unicode="z" horiz-adv-x="1110" d="M16 0v233l504 512h-440v316h1003v-242l-493 -502h489v-317h-1063z" />
<glyph unicode="{" horiz-adv-x="725" d="M2 522v154q106 25 133 106t27 224v94q0 106 6 167.5t25 105.5t57 79q56 50 148 65t327 15v-152q-105 -22 -152.5 -63.5t-59 -104t-11.5 -176.5v-16q0 -145 -11.5 -220t-56.5 -124.5t-147 -77.5q62 -18 107 -45t75 -88q23 -41 29 -96t6 -193v-18q0 -123 14 -184t60 -98.5 t147 -61.5v-152q-182 0 -269 7t-147 34q-88 42 -115.5 122t-29.5 193v48v104q0 93 -4 143.5t-21 87.5q-37 87 -137 121z" />
<glyph unicode="|" horiz-adv-x="469" d="M104 -512v2048h261v-2048h-261z" />
<glyph unicode="}" horiz-adv-x="725" d="M2 -186q105 22 152.5 63.5t59 104t11.5 176.5v16q0 105 6 172t25.5 115t63 81t120.5 54q-64 20 -107.5 46t-74.5 87q-23 44 -29 103t-6 186v18q0 123 -14 184t-60 98.5t-147 61.5v152q183 0 271.5 -7t144.5 -34q88 -42 115.5 -122t29.5 -193v-48v-104q0 -92 4 -140.5 t21 -90.5q37 -87 137 -121v-154q-106 -24 -133 -105.5t-27 -224.5v-94q0 -106 -6 -167.5t-25 -105.5t-57 -79q-56 -51 -147.5 -65.5t-327.5 -14.5v152z" />
<glyph unicode="~" horiz-adv-x="1493" d="M211 614q41 56 76.5 93.5t97.5 69.5t145 32q53 0 100 -16t111 -48l74 -32q103 -47 154 -47q97 0 207 127l106 -215q-60 -68 -145 -119t-174 -51q-54 0 -96 14.5t-117 48.5l-64 31q-97 45 -149 45q-60 0 -98.5 -27.5t-114.5 -116.5z" />
<glyph unicode="&#xa1;" horiz-adv-x="598" d="M66 0v393l79 525h207l88 -529v-389h-374zM66 1061v385h374v-385h-374z" />
<glyph unicode="&#xa2;" horiz-adv-x="1194" d="M47 508q0 139 48 259t147 204q114 100 282 116v238h205v-233q68 -8 140.5 -32t146.5 -81q52 -40 81 -77t54 -81l-320 -180q-27 74 -63.5 116t-118.5 42q-97 0 -140.5 -78.5t-43.5 -202.5q0 -98 33.5 -173t140.5 -75q56 0 95 27.5t60 64t40 82.5l325 -176 q-28 -52 -44.5 -79t-51.5 -64q-75 -81 -148.5 -110t-185.5 -54v-262h-205v262q-126 16 -217.5 65.5t-148.5 123.5t-84 164.5t-27 193.5z" />
<glyph unicode="&#xa3;" horiz-adv-x="1493" d="M31 229q0 87 50 147.5t127 91t159 30.5q31 0 112 -11q-26 59 -78 125h-274v209h145q-40 53 -64 103.5t-24 132.5q0 63 24.5 128.5t80.5 121.5q68 69 158 102t166.5 41t148.5 8q456 0 563 -254q25 -61 31 -121.5t6 -148.5h-365q0 74 -20.5 125t-68 76.5t-124.5 25.5 q-96 0 -148 -40.5t-52 -110.5q0 -48 22.5 -88t69.5 -101h319v-209h-184q25 -41 40 -85t15 -95q0 -10 -1.5 -23t-4 -30.5t-4.5 -32.5q119 -80 168 -80q52 0 66 37.5t14 89.5q0 42 -8 86h352q0 -177 -15 -269.5t-79 -156.5q-45 -40 -111 -63t-137 -23q-108 0 -199.5 42 t-179.5 104q-64 -58 -146 -100t-219 -42q-146 0 -238.5 69t-92.5 189zM283 229q0 -25 19.5 -43t55.5 -18q52 0 86 27t64 67q-76 35 -129 35q-40 0 -68 -17.5t-28 -50.5z" />
<glyph unicode="&#xa4;" horiz-adv-x="1366" d="M14 219l166 166q-27 44 -44.5 82.5t-30.5 99t-13 135.5q0 94 19.5 152.5t66.5 146.5l-162 166l193 195l164 -164q53 29 93 47t96.5 29.5t121.5 11.5q102 0 163 -20.5t146 -67.5l164 164l197 -195l-166 -163q44 -80 65 -145t21 -163q0 -104 -21 -168t-67 -145l166 -168 l-197 -195l-164 168q-51 -27 -93 -45t-97.5 -29.5t-118.5 -11.5q-97 0 -162.5 22.5t-146.5 68.5l-166 -168zM348 692q0 -100 48 -177t125.5 -118t162.5 -41q143 0 238.5 98t95.5 240q0 79 -27 140.5t-75.5 106.5t-110 68t-123.5 23q-81 0 -158 -39.5t-126.5 -118 t-49.5 -182.5z" />
<glyph unicode="&#xa5;" horiz-adv-x="1622" d="M-6 1427h528l281 -485l280 485h531l-318 -448h156v-250h-332l-90 -129v-14h422v-250h-422v-336h-457v336h-405v250h405v14l-90 129h-315v250h141z" />
<glyph unicode="&#xa6;" horiz-adv-x="469" d="M104 -358v716h261v-716h-261zM104 666v716h261v-716h-261z" />
<glyph unicode="&#xa7;" horiz-adv-x="1280" d="M35 602q0 89 31.5 153.5t73 101t96.5 71.5q-39 54 -54.5 87.5t-15.5 90.5q0 77 44 155t139 130.5t241 52.5q100 0 211 -27q106 -25 180.5 -59t167.5 -88l-191 -215q-95 53 -179.5 84.5t-190.5 31.5q-84 0 -84 -45q0 -21 21.5 -36.5t74.5 -40.5l172 -74q113 -49 188 -87 t140 -89t103 -120.5t38 -162.5q0 -119 -56.5 -191.5t-148.5 -140.5q70 -67 70 -184q0 -135 -114.5 -230.5t-317.5 -95.5q-87 0 -162.5 15.5t-145.5 43t-137 64t-118 64.5l202 217q32 -19 54.5 -32t52.5 -28.5t53.5 -25.5t61.5 -23q90 -28 151 -28q33 0 59.5 11t26.5 38 q0 32 -50.5 63t-174.5 80q-193 80 -295.5 138t-159.5 138t-57 193zM354 657q0 -58 53.5 -95.5t174.5 -92.5q225 -104 264 -123q74 61 74 121q0 44 -34 73.5t-73 49.5q-34 18 -67 33.5t-54 25.5q-108 49 -268 131q-35 -38 -52.5 -64t-17.5 -59z" />
<glyph unicode="&#xa8;" horiz-adv-x="641" d="M-98 1239v244h340v-244h-340zM403 1239v244h338v-244h-338z" />
<glyph unicode="&#xa9;" horiz-adv-x="1706" d="M125 723q0 201 99 369.5t267.5 264t362.5 95.5q159 0 293 -57.5t231.5 -159.5t151 -235t53.5 -281q-1 -153 -58 -286t-159 -232.5t-231.5 -153t-278.5 -53.5q-146 0 -277.5 53t-235.5 153.5t-161 233.5t-57 289zM190 719q0 -128 49 -248t141 -213.5t214 -146t260 -52.5 q140 0 269.5 55t222.5 156q62 69 100.5 148.5t55 159.5t16.5 141q0 136 -48.5 257t-138.5 213.5t-212 144.5t-263 52q-179 0 -332.5 -87.5t-243.5 -240.5t-90 -339zM358 725q0 107 35 198.5t102 162.5t161.5 111t211.5 40q105 0 182.5 -28t121.5 -61t100 -87l-178 -172 q-46 44 -97.5 73t-126.5 29q-120 0 -189 -74.5t-69 -189.5q0 -116 68 -191t197 -75q78 0 128.5 28t88.5 64l178 -166q-53 -56 -113.5 -95t-133 -58t-153.5 -19q-123 0 -221 41t-163.5 114t-97.5 164t-32 191z" />
<glyph unicode="&#xaa;" horiz-adv-x="811" d="M39 969q0 53 24 98.5t64 73.5q36 25 72.5 35t146.5 28q28 3 146 27q-3 38 -19.5 56t-69.5 18q-46 0 -63 -13.5t-25 -48.5l-254 -6q12 55 26.5 87t55.5 67q89 73 265 73q177 0 258.5 -54t81.5 -177v-414q1 -15 5.5 -26t16.5 -27h-266v53q-79 -69 -213 -69 q-119 0 -185.5 61t-66.5 158zM293 979q0 -27 20 -40t43 -13q47 0 86 35q30 23 37.5 47.5t9.5 68.5q-73 -24 -137 -41q-30 -11 -44.5 -22.5t-14.5 -34.5z" />
<glyph unicode="&#xab;" horiz-adv-x="854" d="M66 461v375l321 256v-306l-182 -141l182 -137v-303zM463 461v375l321 256v-306l-184 -141l184 -137v-303z" />
<glyph unicode="&#xac;" horiz-adv-x="1366" d="M0 465v260h1364v-725h-260v465h-1104z" />
<glyph unicode="&#xad;" horiz-adv-x="682" d="M78 473v350h524v-350h-524z" />
<glyph unicode="&#xae;" horiz-adv-x="1706" d="M123 723q0 154 56.5 287t159.5 233.5t234.5 154.5t278.5 54q154 0 289.5 -57.5t234.5 -159t153 -233.5t54 -281q0 -147 -56.5 -282t-155.5 -234t-234 -155t-287 -56q-139 0 -272 53.5t-235.5 151.5t-161 233.5t-58.5 290.5zM188 723q0 -182 89.5 -335t242 -241t332.5 -88 q138 0 259.5 50.5t213 142t142.5 213.5t51 256q0 180 -87 332.5t-238.5 242.5t-336.5 90q-137 0 -258.5 -51t-214.5 -143t-144 -213t-51 -256zM512 262v938h334q152 0 221 -22q82 -25 124 -92t42 -140q0 -91 -46.5 -136.5t-117.5 -78.5q48 -30 69.5 -62.5t35.5 -113.5 q19 -118 33.5 -176.5t45.5 -116.5h-258q-19 40 -30.5 89t-20.5 114q-13 98 -25.5 132t-40.5 45t-102 13h-39v-393h-225zM737 834h99q49 0 81.5 4t49.5 14q19 11 30 34t11 48q0 26 -12.5 50t-38 34t-152.5 10h-68v-194z" />
<glyph unicode="&#xaf;" horiz-adv-x="641" d="M-98 1239v191h839v-191h-839z" />
<glyph unicode="&#xb0;" horiz-adv-x="725" d="M10 1176q0 96 47.5 176.5t128 128t176.5 47.5t177 -47.5t128.5 -128t47.5 -176.5t-47.5 -177t-128.5 -128.5t-177 -47.5t-176.5 47.5t-128 128.5t-47.5 177zM248 1176q0 -47 34 -81t80 -34q48 0 81.5 33.5t33.5 81.5q0 47 -33.5 80.5t-81.5 33.5q-46 0 -80 -34t-34 -80z " />
<glyph unicode="&#xb1;" horiz-adv-x="1366" d="M88 0v260h1192v-260h-1192zM88 760v260h467v426h260v-426h465v-260h-465v-428h-260v428h-467z" />
<glyph unicode="&#xb2;" horiz-adv-x="895" d="M41 498v182q266 147 399 266q105 91 105 168q0 54 -33.5 77t-77.5 23q-117 0 -117 -127q0 -16 9 -75l-281 35q4 90 16.5 148t55.5 108q62 72 152.5 92t191.5 20q190 0 282 -78q57 -49 74 -108.5t17 -104.5q0 -78 -30.5 -138t-68 -96t-78.5 -65q-43 -31 -161 -102h325 v-225h-780z" />
<glyph unicode="&#xb3;" horiz-adv-x="895" d="M18 760l263 49q14 -125 147 -125q55 0 89 25.5t34 74.5q0 84 -131 84q-20 0 -32 -0.5t-26 -1.5l-2 191q92 0 135.5 14t43.5 68q0 43 -31 64.5t-82 21.5q-61 0 -86 -26.5t-35 -84.5l-260 16q23 142 107 211q93 80 288 80q127 0 205 -32q96 -38 130 -102.5t34 -125.5 q0 -81 -35 -121.5t-84 -66.5q148 -59 148 -199q0 -57 -28 -123t-103 -112q-39 -25 -83.5 -37t-89.5 -16.5t-98 -4.5q-126 0 -211 29t-135.5 91t-71.5 159z" />
<glyph unicode="&#xb4;" horiz-adv-x="641" d="M25 1202l157 281h434l-329 -281h-262z" />
<glyph unicode="&#xb5;" d="M82 -385v1446h422v-578q0 -72 27 -122t126 -50q97 0 123.5 53t28.5 136v561h424v-1061h-402v156q-32 -88 -68.5 -128t-103.5 -40q-60 0 -94 23t-61 61v-457h-422z" />
<glyph unicode="&#xb6;" horiz-adv-x="1366" d="M166 1006q0 74 26.5 162.5t100.5 158.5q81 77 156.5 97t181.5 22h512v-160h-74v-1628h-172v1628h-242v-1628h-172v940q-55 15 -92 31t-80 49q-75 58 -110 147t-35 181z" />
<glyph unicode="&#xb8;" horiz-adv-x="641" d="M109 -432l6 113q21 -9 45 -9q40 0 64 14t24 31q0 33 -51 33q-36 0 -78 -12l6 74l135 198l96 -30l-49 -101q34 4 53 4q83 0 127.5 -44t44.5 -105q0 -64 -47 -111q-44 -44 -100 -56.5t-119 -12.5q-78 0 -157 14z" />
<glyph unicode="&#xb9;" horiz-adv-x="895" d="M158 1065v217q73 0 113.5 8t68 33t45.5 80h248v-905h-285v583q-39 -10 -76 -13t-114 -3z" />
<glyph unicode="&#xba;" horiz-adv-x="854" d="M31 1100q0 95 39.5 176.5t123.5 134.5t214 57q131 0 223.5 -46t139 -127t46.5 -189q0 -94 -31 -163t-88.5 -115t-129.5 -67.5t-154 -21.5q-123 0 -209.5 49t-130 131t-43.5 181zM301 1102q0 -170 123 -170q121 0 121 176q0 168 -129 168q-64 -4 -92 -59q-23 -43 -23 -115 z" />
<glyph unicode="&#xbb;" horiz-adv-x="854" d="M66 205v305l184 141l-184 137v304l321 -256v-375zM463 205v305l182 141l-182 137v304l321 -256v-375z" />
<glyph unicode="&#xbc;" horiz-adv-x="2048" d="M158 1065v217q73 0 113.5 8t68 33t45.5 80h248v-905h-285v583q-39 -10 -76 -13t-114 -3zM627 0l616 1446h189l-619 -1446h-186zM1176 182v178l415 547h279v-526h129v-199h-129v-182h-266v182h-428zM1427 381h179l2 123q0 71 6 145q-58 -90 -88 -135q-34 -50 -99 -133z " />
<glyph unicode="&#xbd;" horiz-adv-x="2048" d="M158 1065v217q73 0 113.5 8t68 33t45.5 80h248v-905h-285v583q-39 -10 -76 -13t-114 -3zM578 0l618 1446h188l-618 -1446h-188zM1194 0v182q125 70 218 129t181 138q105 91 105 167q0 54 -33.5 77.5t-77.5 23.5q-117 0 -117 -127q0 -15 9 -76l-281 35q4 90 16.5 148 t55.5 108q62 73 152.5 93t191.5 20q188 0 282 -78q91 -80 91 -213q0 -179 -177 -299q-51 -37 -161 -103h325v-225h-780z" />
<glyph unicode="&#xbe;" horiz-adv-x="2048" d="M18 760l263 49q14 -125 147 -125q55 0 89 25.5t34 74.5q0 84 -131 84q-20 0 -32 -0.5t-26 -1.5l-2 191q92 0 135.5 14t43.5 68q0 43 -31 64.5t-82 21.5q-61 0 -86 -26.5t-35 -84.5l-260 16q23 142 107 211q93 80 288 80q127 0 205 -32q96 -38 130 -102.5t34 -125.5 q0 -81 -35 -121.5t-84 -66.5q148 -59 148 -199q0 -57 -28 -123t-103 -112q-39 -25 -83.5 -37t-89.5 -16.5t-98 -4.5q-126 0 -211 29t-135.5 91t-71.5 159zM625 0l616 1446h191l-621 -1446h-186zM1174 182v178l417 547h279v-526h129v-199h-129v-182h-266v182h-430zM1427 381 h179l2 123q0 72 6 143q-14 -21 -42 -63.5t-46 -69.5q-15 -22 -46 -63t-53 -70z" />
<glyph unicode="&#xbf;" horiz-adv-x="1237" d="M20 371q0 114 50.5 181.5t113.5 113.5q29 19 57.5 37.5t53 34.5t59.5 40q64 47 83.5 75t27.5 65h354q-6 -66 -16.5 -104t-48 -86.5t-111.5 -104.5q-18 -14 -29 -22l-22 -16t-29 -22q-127 -96 -127 -178q0 -46 37.5 -88.5t114.5 -42.5q114 0 154.5 69.5t50.5 157.5 l350 -116q-15 -50 -28 -83t-39.5 -73.5t-71.5 -83.5q-95 -88 -205 -118t-234 -30q-296 0 -442 146q-103 101 -103 248zM459 1061v385h372v-385h-372z" />
<glyph unicode="&#xc0;" horiz-adv-x="1622" d="M-2 0l553 1446h520l541 -1446h-492l-63 201h-504l-64 -201h-491zM424 1790h444l131 -246h-268zM651 524h312l-154 510z" />
<glyph unicode="&#xc1;" horiz-adv-x="1622" d="M-2 0l553 1446h520l541 -1446h-492l-63 201h-504l-64 -201h-491zM625 1544l133 246h444l-307 -246h-270zM651 524h312l-154 510z" />
<glyph unicode="&#xc2;" horiz-adv-x="1622" d="M-2 0l553 1446h520l541 -1446h-492l-63 201h-504l-64 -201h-491zM461 1538l190 252h330l197 -252h-295l-70 107l-63 -107h-289zM651 524h312l-154 510z" />
<glyph unicode="&#xc3;" horiz-adv-x="1622" d="M-2 0l553 1446h520l541 -1446h-492l-63 201h-504l-64 -201h-491zM430 1548q18 107 64.5 178.5t167.5 71.5q47 0 89.5 -7.5t127.5 -27.5q40 -8 63 -8q32 0 43 10.5t19 30.5h217q-20 -110 -66.5 -179t-173.5 -69q-60 0 -178 25q-105 22 -117 22q-29 0 -38 -13.5t-11 -33.5 h-207zM651 524h312l-154 510z" />
<glyph unicode="&#xc4;" horiz-adv-x="1622" d="M-2 0l553 1446h520l541 -1446h-492l-63 201h-504l-64 -201h-491zM408 1552v242h340v-242h-340zM651 524h312l-154 510zM877 1552v242h340v-242h-340z" />
<glyph unicode="&#xc5;" horiz-adv-x="1622" d="M-2 0l553 1446h520l541 -1446h-492l-63 201h-504l-64 -201h-491zM569 1702q0 48 25.5 95.5t78.5 78.5t134 31q78 0 131.5 -31t79.5 -79t26 -95q0 -80 -60.5 -143.5t-176.5 -63.5q-107 0 -170 57q-31 29 -49.5 68.5t-18.5 81.5zM651 524h312l-154 510zM733 1702 q0 -35 23 -53q18 -23 51 -23q32 0 53 22t21 54q0 29 -21.5 51.5t-52.5 22.5q-30 0 -52 -22t-22 -52z" />
<glyph unicode="&#xc6;" horiz-adv-x="2261" d="M-35 0l846 1446h1348v-313h-666v-220h614v-315h-614v-281h737v-317h-1179v205h-465l-105 -205h-516zM748 520h305l-4 268q2 42 3.5 84t2.5 84q2 53 5 114t5 95q0 -4 -36 -85.5t-64 -141.5z" />
<glyph unicode="&#xc7;" horiz-adv-x="1536" d="M55 715q0 149 49 289.5t145.5 252.5t238.5 177t317 65q109 0 213.5 -26t198.5 -79t167 -128q65 -67 121 -170l-383 -191q-25 60 -57.5 111t-93.5 90t-148 39q-116 0 -194 -78q-109 -104 -109 -326q0 -113 30.5 -207.5t98.5 -152t174 -57.5q136 0 202 77t93 160l389 -188 q-37 -70 -64 -112.5t-77 -92.5q-88 -87 -189 -133.5t-178.5 -60.5t-154.5 -19l-35 -92q58 14 90 14q79 0 122.5 -48.5t43.5 -113.5q0 -89 -75 -145.5t-204 -56.5q-53 0 -151 12l-2 121q48 -8 69 -8q80 0 80 51q0 17 -14.5 30t-44.5 13q-27 0 -92 -25v92l102 158 q-74 7 -140.5 20.5t-154.5 58t-164 120.5q-110 112 -164.5 255.5t-54.5 303.5z" />
<glyph unicode="&#xc8;" d="M88 0v1446h1145v-318h-686v-215h641v-313h-641v-287h747v-313h-1206zM274 1790h445l131 -246h-268z" />
<glyph unicode="&#xc9;" d="M88 0v1446h1145v-318h-686v-215h641v-313h-641v-287h747v-313h-1206zM475 1544l133 246h445l-308 -246h-270z" />
<glyph unicode="&#xca;" d="M88 0v1446h1145v-318h-686v-215h641v-313h-641v-287h747v-313h-1206zM311 1538l191 252h329l197 -252h-295l-69 107l-64 -107h-289z" />
<glyph unicode="&#xcb;" d="M88 0v1446h1145v-318h-686v-215h641v-313h-641v-287h747v-313h-1206zM262 1552v242h340v-242h-340zM731 1552v242h340v-242h-340z" />
<glyph unicode="&#xcc;" horiz-adv-x="641" d="M-68 1790h445l131 -246h-268zM90 0v1446h459v-1446h-459z" />
<glyph unicode="&#xcd;" horiz-adv-x="641" d="M90 0v1446h459v-1446h-459zM133 1544l133 246h445l-308 -246h-270z" />
<glyph unicode="&#xce;" horiz-adv-x="641" d="M-31 1538l191 252h329l197 -252h-295l-69 107l-64 -107h-289zM90 0v1446h459v-1446h-459z" />
<glyph unicode="&#xcf;" horiz-adv-x="641" d="M-80 1552v242h340v-242h-340zM90 0v1446h459v-1446h-459zM389 1552v242h340v-242h-340z" />
<glyph unicode="&#xd0;" horiz-adv-x="1536" d="M0 614v269h90v563h492q200 -2 313.5 -11.5t211 -44t177.5 -110.5q54 -48 93 -111.5t63 -135.5t34.5 -147t10.5 -157q0 -247 -100 -434.5t-306 -255.5q-79 -26 -163.5 -32.5t-223.5 -6.5h-602v614h-90zM549 332h174q65 4 108 15.5t84 51.5q50 49 79.5 134.5t29.5 189.5 q0 117 -37 213q-40 108 -104.5 138t-161.5 34h-172v-225h297v-269h-297v-282z" />
<glyph unicode="&#xd1;" horiz-adv-x="1579" d="M90 0v1446h485l326 -547q103 -191 176 -354q-7 78 -11.5 163t-6.5 171v567h428v-1446h-492l-293 500q-65 111 -96.5 170.5t-103.5 210.5q12 -155 14 -295v-586h-426zM408 1548q18 107 64 178.5t167 71.5q47 0 89.5 -7.5t127.5 -27.5q42 -8 64 -8q32 0 42 10t19 31h217 q-21 -112 -67 -180t-173 -68q-60 0 -178 25q-105 22 -116 22q-31 0 -39.5 -13.5t-10.5 -33.5h-206z" />
<glyph unicode="&#xd2;" horiz-adv-x="1663" d="M53 721q0 158 48 297.5t146.5 248t247 170.5t336.5 62q204 0 354.5 -67.5t242.5 -178t135 -245t43 -271.5q0 -195 -81.5 -375t-258 -294.5t-443.5 -114.5q-209 0 -359.5 69t-241.5 184.5t-130 247.5t-39 267zM444 1790h445l131 -246h-268zM512 723q0 -127 34.5 -217.5 t107 -138.5t177.5 -48q142 0 228 109.5t86 308.5q0 116 -27 191q-44 129 -130 168t-157 39q-86 0 -159 -43t-116.5 -135t-43.5 -234z" />
<glyph unicode="&#xd3;" horiz-adv-x="1663" d="M53 721q0 158 48 297.5t146.5 248t247 170.5t336.5 62q204 0 354.5 -67.5t242.5 -178t135 -245t43 -271.5q0 -195 -81.5 -375t-258 -294.5t-443.5 -114.5q-209 0 -359.5 69t-241.5 184.5t-130 247.5t-39 267zM512 723q0 -127 34.5 -217.5t107 -138.5t177.5 -48 q142 0 228 109.5t86 308.5q0 116 -27 191q-44 129 -130 168t-157 39q-86 0 -159 -43t-116.5 -135t-43.5 -234zM645 1544l133 246h445l-308 -246h-270z" />
<glyph unicode="&#xd4;" horiz-adv-x="1663" d="M53 721q0 158 48 297.5t146.5 248t247 170.5t336.5 62q204 0 354.5 -67.5t242.5 -178t135 -245t43 -271.5q0 -195 -81.5 -375t-258 -294.5t-443.5 -114.5q-209 0 -359.5 69t-241.5 184.5t-130 247.5t-39 267zM481 1538l191 252h329l197 -252h-295l-69 107l-64 -107h-289z M512 723q0 -127 34.5 -217.5t107 -138.5t177.5 -48q142 0 228 109.5t86 308.5q0 116 -27 191q-44 129 -130 168t-157 39q-86 0 -159 -43t-116.5 -135t-43.5 -234z" />
<glyph unicode="&#xd5;" horiz-adv-x="1663" d="M53 721q0 158 48 297.5t146.5 248t247 170.5t336.5 62q204 0 354.5 -67.5t242.5 -178t135 -245t43 -271.5q0 -195 -81.5 -375t-258 -294.5t-443.5 -114.5q-209 0 -359.5 69t-241.5 184.5t-130 247.5t-39 267zM451 1548q18 107 64 178.5t167 71.5q47 0 89.5 -7.5 t127.5 -27.5q42 -8 64 -8q32 0 42 10t19 31h217q-21 -112 -67 -180t-173 -68q-60 0 -178 25q-105 22 -116 22q-29 0 -38.5 -13.5t-11.5 -33.5h-206zM512 723q0 -127 34.5 -217.5t107 -138.5t177.5 -48q142 0 228 109.5t86 308.5q0 116 -27 191q-44 129 -130 168t-157 39 q-86 0 -159 -43t-116.5 -135t-43.5 -234z" />
<glyph unicode="&#xd6;" horiz-adv-x="1663" d="M53 721q0 158 48 297.5t146.5 248t247 170.5t336.5 62q204 0 354.5 -67.5t242.5 -178t135 -245t43 -271.5q0 -195 -81.5 -375t-258 -294.5t-443.5 -114.5q-209 0 -359.5 69t-241.5 184.5t-130 247.5t-39 267zM428 1552v242h340v-242h-340zM512 723q0 -127 34.5 -217.5 t107 -138.5t177.5 -48q142 0 228 109.5t86 308.5q0 116 -27 191q-44 129 -130 168t-157 39q-86 0 -159 -43t-116.5 -135t-43.5 -234zM897 1552v242h340v-242h-340z" />
<glyph unicode="&#xd7;" horiz-adv-x="1366" d="M125 225l373 371l-373 375l184 180l373 -371l375 371l182 -180l-371 -375l371 -371l-182 -186l-375 373l-373 -373z" />
<glyph unicode="&#xd8;" horiz-adv-x="1663" d="M29 104l159 150q-58 98 -94.5 200.5t-36.5 266.5q0 162 53.5 317.5t182.5 276.5q119 109 250 147.5t278 38.5q132 0 238 -24q90 -19 146.5 -48.5t137.5 -89.5l162 154l135 -145l-170 -160q58 -90 97 -190.5t39 -256.5q0 -134 -43.5 -272.5t-136 -255.5t-242 -188.5 t-353.5 -71.5q-140 0 -274 37q-62 17 -103 35t-64 33.5t-71 50.5l-155 -148zM510 729q0 -54 12 -162l522 490q-71 84 -206 84q-152 0 -240 -106t-88 -306zM616 387q52 -38 92 -57t111 -19q140 0 223 88q60 60 83.5 145t23.5 189q0 63 -10 146z" />
<glyph unicode="&#xd9;" horiz-adv-x="1493" d="M86 586v860h459v-903q0 -57 9 -98t44 -76q51 -54 145 -54q90 0 146 52q35 34 45 74t10 102v903h461v-770q0 -116 -8.5 -201t-45.5 -175.5t-116 -166.5q-51 -48 -125.5 -88t-168 -62t-202.5 -22q-102 0 -199 21.5t-175 61t-129 89.5q-66 63 -98.5 136.5t-41 144 t-10.5 172.5zM360 1790h445l131 -246h-268z" />
<glyph unicode="&#xda;" horiz-adv-x="1493" d="M86 586v860h459v-903q0 -57 9 -98t44 -76q51 -54 145 -54q90 0 146 52q35 34 45 74t10 102v903h461v-770q0 -116 -8.5 -201t-45.5 -175.5t-116 -166.5q-51 -48 -125.5 -88t-168 -62t-202.5 -22q-102 0 -199 21.5t-175 61t-129 89.5q-66 63 -98.5 136.5t-41 144 t-10.5 172.5zM561 1544l133 246h445l-308 -246h-270z" />
<glyph unicode="&#xdb;" horiz-adv-x="1493" d="M86 586v860h459v-903q0 -57 9 -98t44 -76q51 -54 145 -54q90 0 146 52q35 34 45 74t10 102v903h461v-770q0 -116 -8.5 -201t-45.5 -175.5t-116 -166.5q-51 -48 -125.5 -88t-168 -62t-202.5 -22q-102 0 -199 21.5t-175 61t-129 89.5q-66 63 -98.5 136.5t-41 144 t-10.5 172.5zM397 1538l191 252h330l196 -252h-295l-69 107l-64 -107h-289z" />
<glyph unicode="&#xdc;" horiz-adv-x="1493" d="M86 586v860h459v-903q0 -57 9 -98t44 -76q51 -54 145 -54q90 0 146 52q35 34 45 74t10 102v903h461v-770q0 -116 -8.5 -201t-45.5 -175.5t-116 -166.5q-51 -48 -125.5 -88t-168 -62t-202.5 -22q-102 0 -199 21.5t-175 61t-129 89.5q-66 63 -98.5 136.5t-41 144 t-10.5 172.5zM340 1550v242h340v-242h-340zM809 1550v242h340v-242h-340z" />
<glyph unicode="&#xdd;" horiz-adv-x="1622" d="M-6 1446h528l283 -481l278 481h531l-584 -838v-608h-457v608zM625 1544l133 246h444l-307 -246h-270z" />
<glyph unicode="&#xde;" horiz-adv-x="1450" d="M90 0v1448h459v-205h366q103 -4 167.5 -12.5t128 -36.5t118.5 -86q121 -128 121 -338q0 -67 -12 -129.5t-42.5 -124.5t-82.5 -115q-56 -58 -120 -87t-132 -37.5t-160 -10.5h-352v-266h-459zM549 569h262q58 5 76 11q51 16 80.5 63t29.5 113q0 76 -32.5 116.5t-73 52 t-84.5 13.5h-258v-369z" />
<glyph unicode="&#xdf;" horiz-adv-x="1280" d="M84 0v930q2 134 23.5 224.5t103.5 168.5q90 85 209 110t235 25q265 0 392 -119q102 -98 102 -256q0 -113 -37.5 -164.5t-95.5 -82.5q94 -26 154.5 -96t60.5 -275q0 -115 -30 -213.5t-99 -167.5q-114 -111 -324 -111q-67 0 -103.5 9.5t-90.5 31.5v267q57 -39 106 -39 q73 0 106 59t33 180q0 99 -24 148.5t-65.5 62.5t-116.5 15v225q20 -4 32 -4q53 0 81 37.5t28 97.5q0 141 -127 141q-85 0 -108 -51t-23 -129v-1024h-422z" />
<glyph unicode="&#xe0;" horiz-adv-x="1237" d="M39 317q0 138 90 228q66 68 151.5 93t245.5 46q77 10 126 20.5t100 24.5q-2 60 -30.5 90.5t-113.5 30.5q-71 0 -98.5 -21t-38.5 -77l-395 -11q17 93 53.5 161t136.5 122q140 72 381 72q228 0 340 -64t138 -144t26 -179v-578q0 -49 6 -72t31 -59h-416v82 q-66 -46 -144 -76.5t-206 -30.5q-126 0 -213 46.5t-128.5 124t-41.5 171.5zM273 1483h436l155 -281h-260zM430 330q0 -29 26 -55.5t79 -26.5q51 0 110 32.5t84 88.5q21 45 21 125q-70 -26 -125 -41q-95 -24 -109 -29q-86 -35 -86 -94z" />
<glyph unicode="&#xe1;" horiz-adv-x="1237" d="M39 317q0 138 90 228q66 68 151.5 93t245.5 46q77 10 126 20.5t100 24.5q-2 60 -30.5 90.5t-113.5 30.5q-71 0 -98.5 -21t-38.5 -77l-395 -11q17 93 53.5 161t136.5 122q140 72 381 72q228 0 340 -64t138 -144t26 -179v-578q0 -49 6 -72t31 -59h-416v82 q-66 -46 -144 -76.5t-206 -30.5q-126 0 -213 46.5t-128.5 124t-41.5 171.5zM430 330q0 -29 26 -55.5t79 -26.5q51 0 110 32.5t84 88.5q21 45 21 125q-70 -26 -125 -41q-95 -24 -109 -29q-86 -35 -86 -94zM474 1202l157 281h434l-329 -281h-262z" />
<glyph unicode="&#xe2;" horiz-adv-x="1237" d="M39 317q0 138 90 228q66 68 151.5 93t245.5 46q77 10 126 20.5t100 24.5q-2 60 -30.5 90.5t-113.5 30.5q-71 0 -98.5 -21t-38.5 -77l-395 -11q17 93 53.5 161t136.5 122q140 72 381 72q228 0 340 -64t138 -144t26 -179v-578q0 -49 6 -72t31 -59h-416v82 q-66 -46 -144 -76.5t-206 -30.5q-126 0 -213 46.5t-128.5 124t-41.5 171.5zM250 1200l217 283h319l213 -283h-293l-84 135l-81 -135h-291zM430 330q0 -29 26 -55.5t79 -26.5q51 0 110 32.5t84 88.5q21 45 21 125q-70 -26 -125 -41q-95 -24 -109 -29q-86 -35 -86 -94z" />
<glyph unicode="&#xe3;" horiz-adv-x="1237" d="M39 317q0 138 90 228q66 68 151.5 93t245.5 46q77 10 126 20.5t100 24.5q-2 60 -30.5 90.5t-113.5 30.5q-71 0 -98.5 -21t-38.5 -77l-395 -11q17 93 53.5 161t136.5 122q140 72 381 72q228 0 340 -64t138 -144t26 -179v-578q0 -49 6 -72t31 -59h-416v82 q-66 -46 -144 -76.5t-206 -30.5q-126 0 -213 46.5t-128.5 124t-41.5 171.5zM234 1204q16 127 54.5 206t149.5 79q69 0 195 -37q109 -29 119 -29q59 0 59 58h184q-15 -131 -54 -208t-146 -77q-60 0 -176 31q-135 33 -154 33q-49 0 -49 -56h-182zM430 330q0 -29 26 -55.5 t79 -26.5q51 0 110 32.5t84 88.5q21 45 21 125q-70 -26 -125 -41q-95 -24 -109 -29q-86 -35 -86 -94z" />
<glyph unicode="&#xe4;" horiz-adv-x="1237" d="M39 317q0 138 90 228q66 68 151.5 93t245.5 46q77 10 126 20.5t100 24.5q-2 60 -30.5 90.5t-113.5 30.5q-71 0 -98.5 -21t-38.5 -77l-395 -11q17 93 53.5 161t136.5 122q140 72 381 72q228 0 340 -64t138 -144t26 -179v-578q0 -49 6 -72t31 -59h-416v82 q-66 -46 -144 -76.5t-206 -30.5q-126 0 -213 46.5t-128.5 124t-41.5 171.5zM236 1239v244h340v-244h-340zM430 330q0 -29 26 -55.5t79 -26.5q51 0 110 32.5t84 88.5q21 45 21 125q-70 -26 -125 -41q-95 -24 -109 -29q-86 -35 -86 -94zM737 1239v244h338v-244h-338z" />
<glyph unicode="&#xe5;" horiz-adv-x="1237" d="M39 317q0 138 90 228q66 68 151.5 93t245.5 46q77 10 126 20.5t100 24.5q-2 60 -30.5 90.5t-113.5 30.5q-71 0 -98.5 -21t-38.5 -77l-395 -11q17 93 53.5 161t136.5 122q140 72 381 72q228 0 340 -64t138 -144t26 -179v-578q0 -49 6 -72t31 -59h-416v82 q-66 -46 -144 -76.5t-206 -30.5q-126 0 -213 46.5t-128.5 124t-41.5 171.5zM430 330q0 -29 26 -55.5t79 -26.5q51 0 110 32.5t84 88.5q21 45 21 125q-70 -26 -125 -41q-95 -24 -109 -29q-86 -35 -86 -94zM430 1413q0 93 66 160t161 67q63 0 114.5 -30.5t82.5 -83t31 -113.5 t-31 -113.5t-82.5 -83t-114.5 -30.5q-61 0 -113 30t-83 83t-31 114zM584 1413q0 -31 21.5 -52.5t51.5 -21.5q32 0 53 21t21 53q0 15 -5 28.5t-16 24.5t-24 16t-29 5q-30 0 -51.5 -21.5t-21.5 -52.5z" />
<glyph unicode="&#xe6;" horiz-adv-x="1921" d="M35 307q0 60 20.5 118.5t65 108.5t110.5 78q40 18 107 31.5t199 30.5q128 18 215 39q0 63 -24 101t-114 38q-80 0 -108 -27.5t-35 -83.5l-397 -6q6 62 24 112t70 105q40 42 101.5 76t148 54t190.5 20q123 0 244 -27q71 -16 147 -61q69 41 142 65.5t182 24.5 q244 0 401 -156q75 -74 110.5 -157.5t43.5 -158.5t8 -175h-737q0 -54 6 -78q15 -64 62.5 -94.5t109.5 -30.5q84 0 128 43t71 100l344 -145q-64 -90 -94 -119q-181 -176 -457 -176q-98 0 -173 19.5t-126 47t-94 60.5q-61 -34 -124 -61t-149 -46.5t-186 -19.5q-104 0 -186 25 q-108 34 -162 98.5t-69 123.5t-15 103zM426 328q0 -30 24.5 -58t81.5 -28q44 0 88 19.5t72 47.5q39 36 51 71.5t21 102.5q-88 -26 -203 -53q-66 -15 -100.5 -36.5t-34.5 -65.5zM1155 676h301q0 17 -4 49q-12 57 -53 80.5t-88 23.5q-132 0 -156 -153z" />
<glyph unicode="&#xe7;" horiz-adv-x="1151" d="M37 537q0 127 40 231t111 178q97 101 215.5 131.5t223.5 30.5q272 0 436 -166q42 -42 84 -111l-322 -182q-46 162 -178 162q-92 0 -142 -80t-50 -207q0 -88 34.5 -165.5t145.5 -77.5q86 0 125.5 53t64.5 125l322 -176q-50 -109 -153.5 -204.5t-319.5 -117.5l-41 -82 q32 4 53 4q83 0 127.5 -44t44.5 -105q0 -64 -47 -111q-48 -46 -100 -57.5t-119 -11.5q-76 0 -158 14l6 113q22 -9 45 -9q42 0 65 13.5t23 31.5q0 33 -51 33q-34 0 -78 -12l7 74l100 147q-133 12 -231 62t-160.5 130t-92.5 178t-30 208z" />
<glyph unicode="&#xe8;" horiz-adv-x="1237" d="M35 535q0 127 43 234t119.5 180.5t185 114t235.5 40.5q114 0 226.5 -36t199.5 -122q56 -55 89 -116t48 -119.5t19 -116t6 -139.5h-741q2 -50 10 -83t41 -67q49 -49 127 -49q69 0 114.5 35t78.5 102l348 -145q-94 -144 -234.5 -217.5t-328.5 -73.5q-141 0 -252 47 t-186 130t-111.5 186t-36.5 215zM240 1483h436l155 -281h-260zM469 678h307q-1 12 -2.5 26t-3.5 23q-13 53 -53.5 81t-87.5 28q-81 0 -114 -47.5t-46 -110.5z" />
<glyph unicode="&#xe9;" horiz-adv-x="1237" d="M35 535q0 127 43 234t119.5 180.5t185 114t235.5 40.5q114 0 226.5 -36t199.5 -122q56 -55 89 -116t48 -119.5t19 -116t6 -139.5h-741q2 -50 10 -83t41 -67q49 -49 127 -49q69 0 114.5 35t78.5 102l348 -145q-94 -144 -234.5 -217.5t-328.5 -73.5q-141 0 -252 47 t-186 130t-111.5 186t-36.5 215zM420 1202l157 281h434l-329 -281h-262zM469 678h307q-1 12 -2.5 26t-3.5 23q-13 53 -53.5 81t-87.5 28q-81 0 -114 -47.5t-46 -110.5z" />
<glyph unicode="&#xea;" horiz-adv-x="1237" d="M35 535q0 127 43 234t119.5 180.5t185 114t235.5 40.5q114 0 226.5 -36t199.5 -122q56 -55 89 -116t48 -119.5t19 -116t6 -139.5h-741q2 -50 10 -83t41 -67q49 -49 127 -49q69 0 114.5 35t78.5 102l348 -145q-94 -144 -234.5 -217.5t-328.5 -73.5q-141 0 -252 47 t-186 130t-111.5 186t-36.5 215zM250 1200l217 283h319l213 -283h-293l-84 135l-81 -135h-291zM469 678h307q-1 12 -2.5 26t-3.5 23q-13 53 -53.5 81t-87.5 28q-81 0 -114 -47.5t-46 -110.5z" />
<glyph unicode="&#xeb;" horiz-adv-x="1237" d="M35 535q0 127 43 234t119.5 180.5t185 114t235.5 40.5q114 0 226.5 -36t199.5 -122q56 -55 89 -116t48 -119.5t19 -116t6 -139.5h-741q2 -50 10 -83t41 -67q49 -49 127 -49q69 0 114.5 35t78.5 102l348 -145q-94 -144 -234.5 -217.5t-328.5 -73.5q-141 0 -252 47 t-186 130t-111.5 186t-36.5 215zM201 1239v244h340v-244h-340zM469 678h307q-1 12 -2.5 26t-3.5 23q-13 53 -53.5 81t-87.5 28q-81 0 -114 -47.5t-46 -110.5zM702 1239v244h338v-244h-338z" />
<glyph unicode="&#xec;" horiz-adv-x="598" d="M-81 1483h436l155 -281h-260zM86 0v1061h422v-1061h-422z" />
<glyph unicode="&#xed;" horiz-adv-x="598" d="M86 0v1061h422v-1061h-422zM99 1202l157 281h434l-329 -281h-262z" />
<glyph unicode="&#xee;" horiz-adv-x="598" d="M-71 1200l217 283h319l213 -283h-293l-84 135l-81 -135h-291zM86 0v1061h422v-1061h-422z" />
<glyph unicode="&#xef;" horiz-adv-x="598" d="M-121 1239v244h340v-244h-340zM86 0v1061h422v-1061h-422zM380 1239v244h338v-244h-338z" />
<glyph unicode="&#xf0;" d="M41 522q0 137 48 248t129.5 186t181 113.5t196.5 38.5q110 0 178 -43t111 -96q-72 151 -148 258l-346 -78l-29 111l289 67q-70 80 -80 90l293 66l78 -88l186 41l37 -113l-141 -31q60 -83 111.5 -169.5t98 -225.5t46.5 -297q0 -216 -87.5 -359.5t-232.5 -212.5t-325 -69 q-186 0 -321.5 74.5t-204 203t-68.5 285.5zM461 535q0 -110 41 -195.5t155 -85.5q195 0 195 285q0 97 -36.5 183.5t-160.5 86.5q-73 -1 -117 -42.5t-60.5 -103t-16.5 -128.5z" />
<glyph unicode="&#xf1;" d="M84 0v1061h399v-141q49 68 122.5 117.5t225.5 49.5q183 0 287 -98q66 -63 86.5 -145.5t20.5 -173.5v-670h-422v580q0 66 -25.5 112.5t-118.5 46.5q-98 0 -125.5 -51.5t-27.5 -122.5v-565h-422zM277 1204q16 127 54.5 206t149.5 79q69 0 195 -37q109 -29 119 -29 q59 0 59 58h184q-15 -131 -54 -208t-146 -77q-60 0 -176 31q-135 33 -154 33q-49 0 -49 -56h-182z" />
<glyph unicode="&#xf2;" d="M41 522q0 129 42.5 237t124 185.5t199.5 119.5t261 42q104 -1 189 -22.5t150 -57t105 -74.5q52 -50 88 -115t57 -144.5t21 -164.5q0 -125 -42 -229t-124.5 -180.5t-201 -118t-265.5 -41.5q-201 0 -338.5 78.5t-201.5 206.5t-64 278zM283 1483h436l155 -281h-260zM461 535 q0 -110 41 -195.5t155 -85.5q195 0 195 285q0 97 -36.5 183.5t-160.5 86.5q-73 -1 -117 -42.5t-60.5 -103t-16.5 -128.5z" />
<glyph unicode="&#xf3;" d="M41 522q0 129 42.5 237t124 185.5t199.5 119.5t261 42q104 -1 189 -22.5t150 -57t105 -74.5q52 -50 88 -115t57 -144.5t21 -164.5q0 -125 -42 -229t-124.5 -180.5t-201 -118t-265.5 -41.5q-201 0 -338.5 78.5t-201.5 206.5t-64 278zM461 535q0 -110 41 -195.5t155 -85.5 q195 0 195 285q0 97 -36.5 183.5t-160.5 86.5q-73 -1 -117 -42.5t-60.5 -103t-16.5 -128.5zM463 1202l157 281h434l-329 -281h-262z" />
<glyph unicode="&#xf4;" d="M41 522q0 129 42.5 237t124 185.5t199.5 119.5t261 42q104 -1 189 -22.5t150 -57t105 -74.5q52 -50 88 -115t57 -144.5t21 -164.5q0 -125 -42 -229t-124.5 -180.5t-201 -118t-265.5 -41.5q-201 0 -338.5 78.5t-201.5 206.5t-64 278zM293 1200l217 283h319l213 -283h-293 l-84 135l-81 -135h-291zM461 535q0 -110 41 -195.5t155 -85.5q195 0 195 285q0 97 -36.5 183.5t-160.5 86.5q-73 -1 -117 -42.5t-60.5 -103t-16.5 -128.5z" />
<glyph unicode="&#xf5;" d="M41 522q0 129 42.5 237t124 185.5t199.5 119.5t261 42q104 -1 189 -22.5t150 -57t105 -74.5q52 -50 88 -115t57 -144.5t21 -164.5q0 -125 -42 -229t-124.5 -180.5t-201 -118t-265.5 -41.5q-201 0 -338.5 78.5t-201.5 206.5t-64 278zM277 1204q16 127 54.5 206t149.5 79 q69 0 195 -37q109 -29 119 -29q59 0 59 58h184q-15 -131 -54 -208t-146 -77q-60 0 -176 31q-135 33 -154 33q-49 0 -49 -56h-182zM461 535q0 -110 41 -195.5t155 -85.5q195 0 195 285q0 97 -36.5 183.5t-160.5 86.5q-73 -1 -117 -42.5t-60.5 -103t-16.5 -128.5z" />
<glyph unicode="&#xf6;" d="M41 522q0 129 42.5 237t124 185.5t199.5 119.5t261 42q104 -1 189 -22.5t150 -57t105 -74.5q52 -50 88 -115t57 -144.5t21 -164.5q0 -125 -42 -229t-124.5 -180.5t-201 -118t-265.5 -41.5q-201 0 -338.5 78.5t-201.5 206.5t-64 278zM240 1239v244h340v-244h-340zM461 535 q0 -110 41 -195.5t155 -85.5q195 0 195 285q0 97 -36.5 183.5t-160.5 86.5q-73 -1 -117 -42.5t-60.5 -103t-16.5 -128.5zM741 1239v244h338v-244h-338z" />
<glyph unicode="&#xf7;" horiz-adv-x="1366" d="M0 465v260h1366v-260h-1366zM518 227q0 66 48 115t116 49t116 -48t48 -116t-49 -116t-115 -48t-115 49t-49 115zM518 963q0 67 48 115t116 48t116 -47t48 -116q0 -68 -48 -116t-116 -48t-116 49t-48 115z" />
<glyph unicode="&#xf8;" d="M8 80l123 106q-50 91 -72 156t-22 174q0 136 43.5 248.5t125 191t194.5 119.5t255 41q160 0 297 -51q63 -25 121 -68l115 99l90 -107l-109 -94q45 -63 79 -149.5t34 -219.5q0 -162 -73 -294.5t-218 -208.5t-352 -76q-154 0 -240 35t-174 100l-127 -111zM455 551 q1 -21 1.5 -38.5t0.5 -45.5l344 295q-20 25 -50 44t-92 19q-127 0 -165.5 -86t-38.5 -188zM504 322q22 -37 54.5 -60.5t103.5 -23.5q110 0 155 87t45 195q0 25 -1 37t-2 30t-3 42z" />
<glyph unicode="&#xf9;" d="M82 416v645h422v-578q0 -47 8.5 -82.5t41.5 -62.5t101 -27q98 0 125 52.5t29 136.5v561h424v-1061h-402v156l-12.5 -25t-17 -28t-23.5 -25q-55 -54 -132 -79.5t-165 -25.5q-110 1 -181 32.5t-112 72.5q-68 66 -86 146.5t-20 191.5zM283 1483h436l155 -281h-260z" />
<glyph unicode="&#xfa;" d="M82 416v645h422v-578q0 -47 8.5 -82.5t41.5 -62.5t101 -27q98 0 125 52.5t29 136.5v561h424v-1061h-402v156l-12.5 -25t-17 -28t-23.5 -25q-55 -54 -132 -79.5t-165 -25.5q-110 1 -181 32.5t-112 72.5q-68 66 -86 146.5t-20 191.5zM463 1202l157 281h434l-329 -281h-262z " />
<glyph unicode="&#xfb;" d="M82 416v645h422v-578q0 -47 8.5 -82.5t41.5 -62.5t101 -27q98 0 125 52.5t29 136.5v561h424v-1061h-402v156l-12.5 -25t-17 -28t-23.5 -25q-55 -54 -132 -79.5t-165 -25.5q-110 1 -181 32.5t-112 72.5q-68 66 -86 146.5t-20 191.5zM293 1200l217 283h319l213 -283h-293 l-84 135l-81 -135h-291z" />
<glyph unicode="&#xfc;" d="M82 416v645h422v-578q0 -47 8.5 -82.5t41.5 -62.5t101 -27q98 0 125 52.5t29 136.5v561h424v-1061h-402v156l-12.5 -25t-17 -28t-23.5 -25q-55 -54 -132 -79.5t-165 -25.5q-110 1 -181 32.5t-112 72.5q-68 66 -86 146.5t-20 191.5zM236 1239v244h340v-244h-340zM737 1239 v244h338v-244h-338z" />
<glyph unicode="&#xfd;" horiz-adv-x="1194" d="M0 1061h440l105 -457q3 -13 13.5 -76t12.5 -72.5t8.5 -53t14.5 -109.5q15 142 51 323l107 445h438l-387 -1122q-27 -76 -53.5 -132t-71.5 -100q-44 -43 -85.5 -61.5t-85 -23.5t-124.5 -5q-65 0 -120 4t-103 10v301q41 -2 70.5 -4t48.5 -2q90 0 90 51q0 10 -3 21.5t-9 28 t-11 30.5t-10 29zM398 1202l157 281h434l-329 -281h-262z" />
<glyph unicode="&#xfe;" horiz-adv-x="1280" d="M84 -385v1831h412v-467q30 32 58 53.5t84.5 39.5t139.5 18q124 0 213.5 -47t143.5 -125.5t80 -180.5t26 -213q0 -154 -50 -280t-155 -198.5t-262 -72.5q-80 0 -134 16.5t-81 35t-59 47.5v-457h-416zM494 526q0 -94 18 -145q39 -111 145 -111q62 0 109 45q59 59 59 203 q0 260 -159 264q-71 0 -111 -43q-41 -38 -51 -91t-10 -122z" />
<glyph unicode="&#xff;" horiz-adv-x="1194" d="M0 1061h440l105 -457q3 -13 13.5 -76t12.5 -72.5t8.5 -53t14.5 -109.5q15 142 51 323l107 445h438l-387 -1122q-27 -76 -53.5 -132t-71.5 -100q-44 -43 -85.5 -61.5t-85 -23.5t-124.5 -5q-65 0 -120 4t-103 10v301q41 -2 70.5 -4t48.5 -2q90 0 90 51q0 10 -3 21.5t-9 28 t-11 30.5t-10 29zM178 1239v244h340v-244h-340zM679 1239v244h338v-244h-338z" />
<glyph unicode="&#x152;" horiz-adv-x="2261" d="M63 719q0 184 59 325.5t157.5 236t222 142t252.5 47.5q114 0 185 -24.5t124 -59.5v60h1096v-316h-660v-215h615v-315h-615v-285h731v-315h-1167v51q-61 -37 -128 -59.5t-177 -22.5q-157 0 -287 56.5t-220.5 158.5t-139 240t-48.5 295zM518 719q0 -120 36 -210t104 -137.5 t161 -47.5q66 0 118 17.5t126 55.5v650q-51 36 -97 53.5t-122 17.5q-142 0 -223 -82q-103 -106 -103 -317z" />
<glyph unicode="&#x153;" horiz-adv-x="2048" d="M39 528q0 160 71.5 293t212 210t334.5 77q238 0 420 -109q177 109 367 109q78 0 155 -17t146.5 -54t124.5 -91q98 -97 126 -210t32 -277h-746q4 -60 14 -86q22 -69 71 -93t93 -24q79 0 122.5 40.5t78.5 98.5l348 -145q-40 -56 -71 -92t-82.5 -73.5t-122.5 -68.5 q-142 -59 -293 -59q-123 0 -203 30.5t-180 88.5q-55 -35 -99 -57t-121 -41t-182 -19q-157 0 -275.5 48.5t-193.5 131t-111 183.5t-36 206zM461 535q0 -275 192 -275q114 0 157.5 86.5t43.5 204.5q0 68 -16.5 125.5t-60 95t-120.5 37.5q-126 -3 -161 -91.5t-35 -182.5z M1290 682h303q0 13 -4 45q-7 35 -29.5 60.5t-51.5 37t-60 11.5q-66 0 -113 -45q-33 -36 -45 -109z" />
<glyph unicode="&#x178;" horiz-adv-x="1622" d="M-6 1446h528l283 -481l278 481h531l-584 -838v-608h-457v608zM412 1552v242h340v-242h-340zM881 1552v242h340v-242h-340z" />
<glyph unicode="&#x2c6;" horiz-adv-x="641" d="M-53 1200l217 283h319l213 -283h-293l-84 135l-81 -135h-291z" />
<glyph unicode="&#x2dc;" horiz-adv-x="641" d="M-59 1204q16 127 54.5 206t149.5 79q69 0 195 -37q109 -29 119 -29q59 0 59 58h184q-15 -131 -54 -208t-146 -77q-60 0 -176 31q-135 33 -154 33q-49 0 -49 -56h-182z" />
<glyph unicode="&#x2000;" horiz-adv-x="953" />
<glyph unicode="&#x2001;" horiz-adv-x="1907" />
<glyph unicode="&#x2002;" horiz-adv-x="953" />
<glyph unicode="&#x2003;" horiz-adv-x="1907" />
<glyph unicode="&#x2004;" horiz-adv-x="635" />
<glyph unicode="&#x2005;" horiz-adv-x="476" />
<glyph unicode="&#x2006;" horiz-adv-x="317" />
<glyph unicode="&#x2007;" horiz-adv-x="317" />
<glyph unicode="&#x2008;" horiz-adv-x="238" />
<glyph unicode="&#x2009;" horiz-adv-x="381" />
<glyph unicode="&#x200a;" horiz-adv-x="105" />
<glyph unicode="&#x2010;" horiz-adv-x="682" d="M78 473v350h524v-350h-524z" />
<glyph unicode="&#x2011;" horiz-adv-x="682" d="M78 473v350h524v-350h-524z" />
<glyph unicode="&#x2012;" horiz-adv-x="682" d="M78 473v350h524v-350h-524z" />
<glyph unicode="&#x2013;" d="M78 473v350h1165v-350h-1165z" />
<glyph unicode="&#x2014;" horiz-adv-x="1409" d="M78 473v350h1251v-350h-1251z" />
<glyph unicode="&#x2018;" horiz-adv-x="512" d="M70 702v295q2 88 7.5 136t27.5 102.5t69 101.5q56 56 116 77.5t152 37.5v-182q-81 -25 -103 -69.5t-24 -113.5h127v-385h-372z" />
<glyph unicode="&#x2019;" horiz-adv-x="512" d="M70 698v181q82 26 103.5 69.5t23.5 112.5h-127v385h372v-295q-2 -119 -19 -195t-85 -145q-53 -53 -111 -74.5t-157 -38.5z" />
<glyph unicode="&#x201a;" horiz-adv-x="512" d="M70 0v385h372v-295q-2 -119 -19 -194.5t-85 -145.5q-55 -55 -114.5 -75.5t-153.5 -36.5v180q82 26 103.5 69.5t23.5 112.5h-127z" />
<glyph unicode="&#x201c;" horiz-adv-x="1067" d="M84 702v295q1 30 3.5 84t13.5 98.5t30.5 81.5t58.5 76q55 56 114 77.5t155 37.5v-182q-81 -25 -103 -69.5t-24 -113.5h127v-385h-375zM606 702v295q2 88 7.5 135.5t28.5 103.5t69 101q56 56 116 77.5t152 37.5v-182q-81 -25 -103 -69.5t-24 -113.5h127v-385h-373z" />
<glyph unicode="&#x201d;" horiz-adv-x="1067" d="M84 698v181q82 26 103.5 69.5t23.5 112.5h-127v385h375v-295q-2 -79 -7.5 -130t-30 -108t-69.5 -102q-52 -54 -110.5 -75t-157.5 -38zM606 698v181q82 26 103.5 69.5t23.5 112.5h-127v385h373v-295q-2 -119 -20.5 -196.5t-84.5 -143.5q-51 -53 -110 -74.5t-158 -38.5z " />
<glyph unicode="&#x201e;" horiz-adv-x="1067" d="M84 0v385h375v-295q-2 -118 -20.5 -194.5t-86.5 -145.5q-53 -55 -113.5 -75.5t-154.5 -36.5v180q82 26 103.5 69.5t23.5 112.5h-127zM606 0v385h373v-295q-2 -118 -20 -195t-85 -145q-52 -54 -113 -75t-155 -37v180q82 26 103.5 69.5t23.5 112.5h-127z" />
<glyph unicode="&#x2022;" horiz-adv-x="682" d="M25 721q0 85 42.5 158.5t116 116t158.5 42.5t158.5 -42.5t116 -116t42.5 -158.5t-42 -158.5t-116 -116.5t-159 -43t-159 43t-116 116.5t-42 158.5z" />
<glyph unicode="&#x2026;" horiz-adv-x="2048" d="M156 0v385h372v-385h-372zM838 0v385h372v-385h-372zM1520 0v385h372v-385h-372z" />
<glyph unicode="&#x202f;" horiz-adv-x="381" />
<glyph unicode="&#x2039;" horiz-adv-x="469" d="M72 461v375l321 256v-306l-182 -141l182 -137v-303z" />
<glyph unicode="&#x203a;" horiz-adv-x="469" d="M72 205v305l182 141l-182 137v304l321 -256v-375z" />
<glyph unicode="&#x205f;" horiz-adv-x="476" />
<glyph unicode="&#x2122;" horiz-adv-x="1409" d="M0 1309v137h588v-137h-207v-543h-172v543h-209zM643 766v680h217l156 -492l145 492h219v-680h-168l9 362l10 138l-27 -109l-117 -391h-151l-121 393l-29 105l13 -136l10 -362h-166z" />
<glyph unicode="&#x25fc;" horiz-adv-x="1060" d="M0 0v1060h1060v-1060h-1060z" />
</font>
</defs>
</svg>
